<?xml version="1.0" standalone="no"?>
<!DOCTYPE svg PUBLIC "-//W3C//DTD SVG 20010904//EN"
 "http://www.w3.org/TR/2001/REC-SVG-20010904/DTD/svg10.dtd">
<svg version="1.0" xmlns="http://www.w3.org/2000/svg"
 width="342.000000pt" height="383.000000pt" viewBox="0 0 342.000000 383.000000"
 preserveAspectRatio="xMidYMid meet">

<g transform="translate(0.000000,383.000000) scale(0.100000,-0.100000)"
fill="#000000" stroke="none">
<path d="M1095 3518 c-3 -18 -5 -96 -3 -173 l3 -140 48 165 c26 91 47 169 47
173 0 4 -20 7 -45 7 -42 0 -44 -2 -50 -32z"/>
<path d="M1285 3528 c-20 -62 -205 -771 -201 -775 10 -10 657 -184 717 -193
87 -13 164 1 240 41 105 56 167 150 195 298 25 131 -4 245 -86 335 -79 85
-142 112 -515 215 -182 50 -334 91 -338 91 -4 0 -9 -6 -12 -12z m617 -337 c64
-20 130 -72 156 -123 29 -56 35 -159 13 -222 -20 -59 -84 -122 -149 -148 -54
-21 -69 -22 -271 -20 -118 1 -215 3 -216 5 -1 1 0 121 3 266 l5 263 211 -5
c116 -3 228 -10 248 -16z"/>
<path d="M1741 3536 c2 -2 58 -18 124 -36 200 -53 308 -116 394 -230 58 -78
82 -148 88 -255 8 -141 -31 -275 -111 -378 -21 -27 -36 -51 -34 -53 8 -8 105
74 144 123 100 123 128 337 65 503 -53 139 -191 251 -361 294 -87 21 -324 46
-309 32z"/>
<path d="M1076 2363 c-3 -148 -8 -356 -10 -464 l-4 -196 226 -64 c222 -62 230
-64 347 -64 110 0 125 2 178 27 72 34 155 116 189 188 15 30 25 56 24 58 -2 1
-23 -5 -47 -14 -64 -22 -160 -28 -372 -19 l-187 7 0 168 c0 92 3 215 7 274 l6
108 236 -7 c221 -6 235 -5 216 11 -48 39 -160 79 -468 164 -180 49 -329 90
-331 90 -2 0 -6 -120 -10 -267z"/>
<path d="M2116 2495 c-10 -7 -40 -22 -66 -31 l-49 -18 39 -38 c168 -168 193
-444 63 -691 -36 -68 -110 -154 -167 -194 l-29 -20 64 8 c216 28 391 132 467
277 41 79 56 151 55 262 -2 202 -86 334 -269 425 -79 39 -82 40 -108 20z"/>
<path d="M1060 1549 l0 -59 192 0 c105 0 189 2 187 4 -2 2 -44 15 -94 29 -49
15 -134 39 -187 56 l-98 29 0 -59z"/>
<path d="M2015 1156 c-29 -29 -31 -39 -9 -60 19 -20 34 -20 62 0 22 15 32 74
13 74 -5 0 -16 3 -25 6 -9 3 -26 -5 -41 -20z"/>
<path d="M795 1161 l-70 -6 -8 -50 c-5 -27 -27 -146 -49 -263 -30 -157 -38
-216 -30 -224 7 -7 54 -12 119 -12 133 0 186 19 229 84 40 60 38 123 -4 162
-18 15 -41 28 -52 28 -32 0 -32 18 0 25 66 14 120 84 120 154 0 54 -32 90 -90
102 -48 9 -56 9 -165 0z m146 -62 c18 -18 20 -30 16 -67 -4 -37 -12 -53 -41
-79 -32 -29 -42 -33 -92 -33 -54 0 -56 1 -50 23 3 12 11 57 18 100 l11 77 59
0 c46 0 62 -4 79 -21z m-41 -259 c41 -41 18 -145 -40 -175 -41 -21 -119 -20
-127 2 -6 15 12 148 24 180 3 9 24 13 64 13 46 0 64 -5 79 -20z"/>
<path d="M1805 1105 c-14 -13 -25 -36 -25 -50 0 -14 -3 -24 -7 -24 -32 5 -48
-23 -20 -34 11 -4 8 -35 -16 -160 -16 -86 -27 -167 -23 -181 7 -30 29 -43 84
-52 33 -5 44 -2 62 16 25 25 18 37 -24 42 -51 5 -53 23 -22 183 l28 145 32 0
c40 0 61 14 53 34 -4 10 -18 16 -41 16 l-34 0 10 36 c7 28 7 39 -4 45 -20 13
-27 11 -53 -16z"/>
<path d="M1240 1020 c-167 -57 -233 -317 -101 -394 61 -35 201 -22 201 19 0
12 -13 13 -65 8 -59 -5 -68 -4 -90 17 -19 18 -25 34 -25 65 l0 42 62 7 c110
11 190 67 204 141 8 44 -15 81 -61 101 -44 18 -58 17 -125 -6z m88 -42 c21
-21 14 -74 -14 -108 -27 -32 -111 -80 -140 -80 -17 0 -17 2 7 94 20 77 108
133 147 94z"/>
<path d="M1529 1023 c-21 -10 -28 -23 -33 -61 -4 -26 -18 -107 -32 -181 -14
-73 -23 -139 -20 -147 3 -8 19 -14 36 -14 37 0 43 13 60 123 6 43 18 97 26
121 17 49 65 99 108 113 37 12 55 38 39 54 -18 18 -68 -7 -106 -53 l-32 -38 3
43 c4 51 -8 61 -49 40z"/>
<path d="M2344 1031 c-40 -10 -75 -34 -91 -63 -12 -22 -12 -21 -13 14 0 43 -8
50 -49 42 -27 -6 -31 -11 -36 -53 -4 -25 -17 -111 -31 -189 -13 -79 -22 -148
-18 -153 8 -13 58 -11 72 3 7 7 12 24 12 39 0 56 32 204 51 239 26 45 66 70
113 70 59 0 62 -21 31 -190 -14 -79 -24 -149 -21 -157 4 -9 17 -13 38 -11 39
4 39 4 67 188 27 171 27 186 -1 204 -30 19 -85 27 -124 17z"/>
<path d="M2720 1027 c-62 -17 -112 -57 -143 -116 -103 -188 -4 -351 181 -296
94 28 169 134 179 253 5 65 -14 113 -57 143 -34 24 -105 31 -160 16z m110 -64
c20 -25 22 -37 17 -98 -6 -88 -30 -146 -73 -185 -42 -37 -101 -41 -129 -10
-48 53 -17 230 50 289 48 42 104 43 135 4z"/>
<path d="M1994 1023 c-6 -5 -15 -35 -19 -68 -4 -33 -17 -118 -31 -189 -13 -71
-21 -133 -18 -138 8 -13 62 -10 71 5 7 11 62 314 66 367 2 21 -3 25 -28 28
-16 1 -35 -1 -41 -5z"/>
</g>
</svg>
